# xmcd
#
# Track frame offsets: 
#        150
#        15980
#        27557
#        39125
#        60450
#        75225
#        88410
#        104470
#        115800
#        132815
#        136607
#
# Disc length: 2028 seconds
#
# Revision: 7
# Processed by: cddbd v1.5.2PL0 Copyright (c) Steve Scherf et al.
# Submitted via: ExactAudioCopy v0.99pb5
#
DISCID=7b07ea0b,7f07eb0b
DTITLE=Garth Brooks - Beyond The Season
DYEAR=1992
DGENRE=Country
TTITLE0=Go Tell It On The Mountain
TTITLE1=God Rest Ye Merry Gentlemen
TTITLE2=The Old Man's Back In Town
TTITLE3=The Gift
TTITLE4=Unto You This Night
TTITLE5=White Christmas
TTITLE6=The Friendly Beasts
TTITLE7=Santa Looked A Lot Like Daddy
TTITLE8=Silent Night
TTITLE9=Mary's Dream
TTITLE10=What Child Is This
EXTD=
EXTT0=
EXTT1=
EXTT2=
EXTT3=
EXTT4=
EXTT5=
EXTT6=
EXTT7=
EXTT8=
EXTT9=
EXTT10=
PLAYORDER=
